<svg width="31" height="31" viewBox="0 0 31 31" fill="none" xmlns="http://www.w3.org/2000/svg">
<path d="M2.90625 7.26562H18.4062C19.434 7.26563 20.4196 7.67388 21.1463 8.40059C21.873 9.12729 22.2812 10.1129 22.2812 11.1406V22.7656C22.2812 23.0226 22.1792 23.269 21.9975 23.4506C21.8158 23.6323 21.5694 23.7344 21.3125 23.7344H5.8125C4.78479 23.7344 3.79916 23.3261 3.07246 22.5994C2.34576 21.8727 1.9375 20.8871 1.9375 19.8594V8.23438C1.9375 7.97745 2.03956 7.73104 2.22124 7.54937C2.40292 7.36769 2.64932 7.26562 2.90625 7.26562V7.26562Z" stroke="white" stroke-width="2" stroke-linecap="round" stroke-linejoin="round"/>
<path d="M22.2812 13.5625L29.0625 9.6875V21.3125L22.2812 17.4375" stroke="white" stroke-width="2" stroke-linecap="round" stroke-linejoin="round"/>
</svg>
