<svg xmlns="http://www.w3.org/2000/svg" viewBox="0 0 119.32823 119.32823"><defs><style>.cls-1{fill:#ef444a;}.cls-2,.cls-3,.cls-4,.cls-6,.cls-8{fill:none;}.cls-2,.cls-3,.cls-4,.cls-5,.cls-6,.cls-8{stroke:#ebeced;stroke-miterlimit:10;}.cls-2,.cls-5{stroke-width:7px;}.cls-3{stroke-width:6.03567px;}.cls-4{stroke-width:5px;}.cls-5{fill:#ed1f24;}.cls-6{stroke-width:3px;}.cls-7{fill:#ebeced;}</style></defs><g id="Layer_2" data-name="Layer 2"><g id="Layer_1-2" data-name="Layer 1"><circle class="cls-1" cx="59.66412" cy="59.66412" r="59.66412"/><ellipse class="cls-2" cx="29.6285" cy="75.10111" rx="12.68853" ry="12.9943" transform="translate(-51.08838 73.42495) rotate(-67.2804)"/><line class="cls-2" x1="33.91651" y1="39.53967" x2="19.4152" y2="67.3644"/><ellipse class="cls-2" cx="89.7053" cy="74.89834" rx="13.00155" ry="12.68146" transform="translate(-23.38204 45.43555) rotate(-25.25706)"/><line class="cls-2" x1="83.67123" y1="39.72993" x2="100.01294" y2="67.06329"/><ellipse class="cls-2" cx="40.4072" cy="44.38222" rx="8.68142" ry="7.59684" transform="translate(-0.64658 0.5974) rotate(-0.84035)"/><ellipse class="cls-2" cx="77.61235" cy="44.6564" rx="8.68142" ry="7.59684" transform="translate(-0.6466 1.1431) rotate(-0.84035)"/><path class="cls-3" d="M76.44007,76.10958a19.18718,19.18718,0,0,0-9.26639-7.01935,21.68559,21.68559,0,0,0-6.67929-1.17433,20.28508,20.28508,0,0,0-9.35728,1.59616c-5.13783,2.36563-7.71755,6.83822-8.73077,7.42368-.03213.01856-.15488.08649-.15555.17909-.00186.25467.92124.4722,1.90728.63673"/><path class="cls-4" d="M69.96763,50.86009a11.46319,11.46319,0,0,0-4.91684-5.65923,11.6976,11.6976,0,0,0-6.77831-1.657,12.338,12.338,0,0,0-6.78463,2.92415c-2.87455,2.17772-3.51935,4.36349-4.33647,5.13-.03.02818-.1284.11832-.10338.19867.06677.21443.95252.16721,1.72013.08889"/><line class="cls-5" x1="48.95917" y1="44.93679" x2="42.11399" y2="72.7138"/><line class="cls-2" x1="68.52495" y1="41.19632" x2="75.02505" y2="72.5801"/><line class="cls-6" x1="43.08054" y1="78.91498" x2="75.83073" y2="79.09438"/><path class="cls-7" d="M39.62411,38.73487a4.55208,4.55208,0,0,0,1.86442-1.95572c.20144-.4012.36561-.82386.52911-1.24148.05192-.13264.10368-.26553.15358-.39894.14221-.38019-.25453.49658-.00565.01554.06008-.11614.11749-.23216.1856-.344.054-.08871.324-.46216.05968-.112-.26155.34654.02083-.00362.096-.07978.10162-.1029.2332-.18912.327-.29725-.408.47022-.27829.20807-.04049.06162.109-.06711.22213-.12476.33387-.18673a1.40269,1.40269,0,0,0,.17288-.0837c.01171-.009-.53757.19177-.3005.12854.14459-.03856.28453-.10119.42928-.14193.12493-.03515.2514-.06561.37859-.09137.06317-.0128.12981-.019.19215-.03482.24817-.063-.3643.04318-.34156.04589.26952.0321.57165-.03451.8478-.01852.08668.005.17359.01884.26012.02157.25629.0081-.36266-.05381-.34182-.04437a2.47228,2.47228,0,0,0,.38171.08163c.126.03224.248.07756.3732.11163.36463.09919-.51586-.273-.05921-.02716.1145.06165.22958.12005.34061.18812.085.0521.46489.33147.14287.07985-.32514-.25406.05631.05968.128.1273.12082.114.23056.23666.34409.35761.28654.30527-.33123-.48456-.003-.00117q.1195.176.225.3606c.07054.12325.12708.25475.19771.37744.13077.22717-.11232-.28638-.1079-.27159.027.09032.06976.178.10115.26708a7.64052,7.64052,0,0,1,.25615.96991c.08534.40452-.05077-.5828-.00632-.02181q.02.25176.02072.50452c.00043.193-.01349.38428-.02495.57667-.02463.41328.10561-.57433-.0012-.0222a6.42468,6.42468,0,0,1-.29754,1.03635,2.51176,2.51176,0,0,0,1.7461,3.0753,2.56806,2.56806,0,0,0,3.0753-1.7461A8.55844,8.55844,0,0,0,48.38146,30.288a7.5118,7.5118,0,0,0-9.3657.75,7.272,7.272,0,0,0-1.614,2.63937c-.07892.19772-.1602.39667-.23154.5972-.08955.25174.12968-.28811.11781-.27075a3.0701,3.0701,0,0,0-.14828.31245c-.0533.10189-.385.62116-.13086.25.20351-.29717.09517-.12808.02107-.0589.45934-.42887.2898-.20635.07055-.08984a2.521,2.521,0,0,0-.89687,3.42048,2.55509,2.55509,0,0,0,3.42047.89688Z"/><path class="cls-7" d="M74.27682,37.23335c-.04937-.22793-.09862-.45591-.14231-.685a1.58149,1.58149,0,0,1-.0903-.52133q.07089.56112.02471.14151-.01617-.17349-.02362-.34759c-.00679-.17332,0-.34334.0015-.51651q.03533-.41992-.03419.15772.02832-.16686.07168-.33046a2.53737,2.53737,0,0,1,.07537-.24277q.09384-.2637-.08621.20264a1.88859,1.88859,0,0,0,.256-.4168c-.08432.18734-.39133.45285-.07774.14605.44445-.43482-.39527.22-.04518.01972.10288-.05885.2067-.12.308-.18136.35212-.21328-.64649.21924-.04126.01751.11644-.03881.23476-.07217.35414-.10062.09867-.02352.65913-.1121.15795-.04188-.50072.07015.06746.00889.17059.00669.14912-.00317.297.0086.44572.01044.58009.00717-.55027-.11909-.09241-.02034.29544.06371.57674.14034.8652.23139.44536.14058-.51142-.2624-.12934-.05378.1478.0807.29668.15521.43946.2452.12893.08126.25259.18975.38465.26438-.60023-.33924-.07318-.04564.08573.10259a10.48149,10.48149,0,0,1,.73606.78637c.35826.41035-.32114-.46642-.01233-.01525.11756.17174.23906.34016.35236.51489.19963.30787.386.62417.56392.94506.35629.64277.676,1.30486.99283,1.9677a2.51274,2.51274,0,0,0,3.42048.89688,2.56662,2.56662,0,0,0,.89688-3.42048c-1.23657-2.58711-2.80635-5.49257-5.56728-6.70973-2.97056-1.30959-6.75291-.89644-8.62839,2.015-1.21385,1.88437-.90109,4.19775-.454,6.26137a2.51847,2.51847,0,0,0,3.0753,1.7461,2.55823,2.55823,0,0,0,1.74609-3.0753Z"/><path class="cls-7" d="M69.9937,31.95336a9.176,9.176,0,0,0-1.50615,10.44083,2.51657,2.51657,0,0,0,3.42048.89688,2.56078,2.56078,0,0,0,.89688-3.42047c-.06489-.12881-.12587-.25874-.18352-.39094l.252.5972a6.58565,6.58565,0,0,1-.42868-1.55143l.08931.6646a7.06442,7.06442,0,0,1-.00466-1.82692l-.0893.6646a7.12134,7.12134,0,0,1,.48605-1.76328l-.252.5972a6.71108,6.71108,0,0,1,.8193-1.38959l-.39091.506c.13508-.16984.27671-.33227.42674-.48912a2.5,2.5,0,0,0-3.53554-3.53553Z"/><ellipse class="cls-8" cx="29.54649" cy="75.26357" rx="7.2496" ry="7.23572" transform="translate(-49.93292 90.117) rotate(-79.15189)"/><ellipse class="cls-8" cx="90.05252" cy="74.82984" rx="7.2496" ry="7.23572" transform="translate(-0.38851 149.18966) rotate(-79.15189)"/><path class="cls-7" d="M26.56433,47.98929a4.24639,4.24639,0,0,1-.02533.8602l.08931-.6646a4.41189,4.41189,0,0,1-.30124,1.08523l.252-.59719a4.34187,4.34187,0,0,1-.541.91907l.39091-.506a4.05223,4.05223,0,0,1-.59116.60686,2.41688,2.41688,0,0,0-.51692,2.731,1.874,1.874,0,0,0,.51692.80457,2.51547,2.51547,0,0,0,1.76777.73223l.66459-.0893a2.49763,2.49763,0,0,0,1.10317-.64293,6.48009,6.48009,0,0,0,1.77511-2.62911,4.418,4.418,0,0,0,.28071-.9522,6.92571,6.92571,0,0,0,.13515-1.65783,2.4135,2.4135,0,0,0-1.5368-2.28469,1.88281,1.88281,0,0,0-.9632-.21531,2.52635,2.52635,0,0,0-1.76777.73223,2.471,2.471,0,0,0-.73223,1.76777Z"/><path class="cls-7" d="M27.89615,46.78382l-2.40136,3.45492a1.86067,1.86067,0,0,0-.29667.92949,2.56833,2.56833,0,0,0,1.19355,2.491,2.52343,2.52343,0,0,0,1.9264.252l.5972-.252a2.51245,2.51245,0,0,0,.89688-.89688l2.40135-3.45491a1.86061,1.86061,0,0,0,.29667-.9295,2.56832,2.56832,0,0,0-1.19355-2.491,2.52345,2.52345,0,0,0-1.92639-.252l-.5972.252a2.51245,2.51245,0,0,0-.89688.89688Z"/><path class="cls-7" d="M49.78832,43.05469,48.945,44.064l-.39091.506a1.86048,1.86048,0,0,0-.29667.9295,1.25873,1.25873,0,0,0,0,.6646,1.86048,1.86048,0,0,0,.29667.9295l.39091.506.506.39091a1.86067,1.86067,0,0,0,.92949.29667,1.89379,1.89379,0,0,0,.9969-.04465c.19173-.06136.37419-.14438.55971-.22267.18027-.07608.36194-.14677.53386-.24025a6.3335,6.3335,0,0,0,.96955-.70442,2.97655,2.97655,0,0,0,.40959-.41139,6.47228,6.47228,0,0,0,.70537-.97681,1.86067,1.86067,0,0,0,.29667-.9295,1.89379,1.89379,0,0,0-.04465-.9969l-.252-.5972a1.88946,1.88946,0,0,0-.6439-.70142,1.24889,1.24889,0,0,0-.55158-.32147,1.88291,1.88291,0,0,0-.9632-.21531l-.6646.0893a2.49774,2.49774,0,0,0-1.10317.64293l-.88048.71753,2.43237-.64293A.301.301,0,0,1,52.145,42.719l.59719.252a.25733.25733,0,0,1-.04-.02352l.506.39091a.11141.11141,0,0,1-.01806-.018l.39091.506a.08659.08659,0,0,1-.01167-.01952l.252.5972a.08016.08016,0,0,1-.00569-.02076l.0893.6646a.0886.0886,0,0,1-.00013-.02171l-.0893.6646a.17169.17169,0,0,1,.00931-.0337l-.252.59719a.26464.26464,0,0,1,.028-.04557l-.39091.506a.4378.4378,0,0,1,.06859-.06506l-.506.39091a.612.612,0,0,1,.107-.06163l-.5972.252a.53651.53651,0,0,1,.119-.03453l-.6646.0893a.37633.37633,0,0,1,.08251-.00125l-.6646-.08931a.27188.27188,0,0,1,.05952.0165l-.5972-.252a.246.246,0,0,1,.03866.02408l-.506-.39091a.16872.16872,0,0,1,.02215.02217l-.39091-.506a.27535.27535,0,0,1,.02675.04315l-.252-.59719a.405.405,0,0,1,.023.08618l-.0893-.66459a.59115.59115,0,0,1-.00093.14494l.0893-.6646a.66066.66066,0,0,1-.03014.10806l.252-.5972a.75731.75731,0,0,1-.08607.14892l.39091-.506a1.18176,1.18176,0,0,1-.19775.19376l.506-.39091a2.30545,2.30545,0,0,1-.41476.24389,4.38506,4.38506,0,0,0-.90989.62779,2.68324,2.68324,0,0,0-.68.84657,3.00972,3.00972,0,0,0-.38227,1.40265,2.46069,2.46069,0,0,0,.11084.87467,2.797,2.797,0,0,0,1.1489,1.49408,1.86067,1.86067,0,0,0,.9295.29667,1.89369,1.89369,0,0,0,.9969-.04465l.5972-.252a2.51245,2.51245,0,0,0,.89688-.89688l.252-.5972a2.51767,2.51767,0,0,0,0-1.3292.695.695,0,0,1-.02168-.09166l.0893.6646a.585.585,0,0,1,.00014-.11841l-.08931.6646a.62388.62388,0,0,1,.041-.14085l-.252.5972a.856.856,0,0,1,.07864-.13159l-.39091.506a1.2538,1.2538,0,0,1,.21043-.209l-.506.3909a2.68215,2.68215,0,0,1,.4602-.26369,2.41483,2.41483,0,0,0,.22572-.1248A6.08593,6.08593,0,0,0,53.49162,47.3a3.10416,3.10416,0,0,0,.8871-1.43222,2.84581,2.84581,0,0,0,.11475-.84667,3.47607,3.47607,0,0,0-.0488-.37687,2.90638,2.90638,0,0,0-.05232-.37266l-.01183-.03725a5.90419,5.90419,0,0,0-.26349-.62153c-.00561-.00967-.013-.018-.01877-.0274-.0566-.09222-.33051-.44089-.40158-.51769a2.08465,2.08465,0,0,0-.53611-.41459c-.1045-.05609-.1685-.07352-.3186-.13687a2.65767,2.65767,0,0,0-.32006-.13405l-.03026-.00717c-.08-.0224-.60706-.09175-.68834-.09216-.02256-.00011-.04411.00133-.06656.00283-.06827.00455-.60959.07631-.67313.09071-.01136.00257-.023.004-.03424.00713-.02325.00653-.04517.01455-.06791.02255-.09286.03268-.51481.211-.60554.25546-.01624.008-.03253.015-.04836.02382-.02049.01139-.03925.02476-.05862.03781-.07035.04742-.45089.34193-.5126.39606-.00822.00722-.01732.01343-.02517.02111a2.69516,2.69516,0,0,0-.23225.29179,2.8798,2.8798,0,0,0-.22344.29856c-.03351.05628-.23753.55018-.25633.60854l-.00406.0168a1.81621,1.81621,0,0,0-.04547,1.02417,2.61387,2.61387,0,0,0,.04856.34793c.00539.01926.24319.58209.25381.60232a2.00382,2.00382,0,0,0,.42063.54349c.03674.0335.47262.3697.51175.39508.01111.00721.02293.01261.0342.01935l.5972.252.017.00677a.98492.98492,0,0,0,.35118.05082,1.89369,1.89369,0,0,0,.9969-.04465l.2986-.126a1.24882,1.24882,0,0,0,.55158-.32146c.1091-.08429.21715-.16626.32343-.25286l.15848-.12916.65156-.531L50.238,43.16333a3.12915,3.12915,0,0,1-.27036.41558l.39091-.506a3.11221,3.11221,0,0,1-.52219.52157l.506-.39091a3.01421,3.01421,0,0,1-.63034.37283l.5972-.252c-.0857.03613-.17253.06831-.2611.09666l2.43236,4.17847.84338-1.00931a2.78131,2.78131,0,0,0,.73223-1.76777,2.78131,2.78131,0,0,0-.73223-1.76777l-.506-.39091a2.4885,2.4885,0,0,0-1.2618-.34132l-.6646.0893a2.49769,2.49769,0,0,0-1.10317.64293Z"/><path class="cls-7" d="M50.19773,42.9885l-.94681.99993a2.78131,2.78131,0,0,0-.73223,1.76777,2.78131,2.78131,0,0,0,.73223,1.76777l.506.39091a2.4885,2.4885,0,0,0,1.2618.34132l.6646-.0893a2.49765,2.49765,0,0,0,1.10316-.64293l.94681-.99994a2.7814,2.7814,0,0,0,.73224-1.76776,2.78139,2.78139,0,0,0-.73224-1.76777l-.506-.39091a2.4884,2.4884,0,0,0-1.2618-.34132l-.6646.0893a2.49769,2.49769,0,0,0-1.10317.64293Z"/><path class="cls-7" d="M65.57445,45.358l1.92779,2.95755a2.64005,2.64005,0,0,0,1.49408,1.1489,1.89379,1.89379,0,0,0,.9969.04466,1.86059,1.86059,0,0,0,.9295-.29668,2.49985,2.49985,0,0,0,.89688-3.42047l-1.9278-2.95756a2.64008,2.64008,0,0,0-1.49407-1.1489,1.89379,1.89379,0,0,0-.9969-.04465,1.86067,1.86067,0,0,0-.9295.29667,2.49986,2.49986,0,0,0-.89688,3.42048Z"/><path class="cls-7" d="M65.1258,48.31436l1.94846,2.94321a2.40814,2.40814,0,0,0,2.491,1.19355,1.86067,1.86067,0,0,0,.9295-.29667,2.49986,2.49986,0,0,0,.89688-3.42048l-1.94845-2.94321a2.40816,2.40816,0,0,0-2.491-1.19355,1.8607,1.8607,0,0,0-.9295.29667,2.49986,2.49986,0,0,0-.89688,3.42048Z"/></g></g></svg>