<svg xmlns="http://www.w3.org/2000/svg" viewBox="0 0 119.32823 119.32823"><defs><style>.cls-1{fill:#538ca5;}.cls-2,.cls-3,.cls-4,.cls-5{fill:none;stroke:#ebeced;stroke-miterlimit:10;}.cls-2{stroke-width:7px;}.cls-3{stroke-width:4px;}.cls-4{stroke-width:3px;}.cls-5{stroke-width:1.79869px;}</style></defs><g id="Layer_2" data-name="Layer 2"><g id="Layer_1-2" data-name="Layer 1"><circle class="cls-1" cx="59.66412" cy="59.66412" r="59.66412"/><ellipse class="cls-2" cx="59.66412" cy="67.09825" rx="33.401" ry="33.14796"/><path class="cls-3" d="M51.99869,31.13762a8.97289,8.97289,0,0,1-1.07381-6.37744c.92279-5.16684,6.22148-10.12287,12.36975-9.29111,5.16286.69845,8.47873,5.21072,9.317,9.29111.223,1.08548.88374,4.30172-.86748,6.93975C68.06532,37.24174,55.835,37.07957,51.99869,31.13762Z"/><line class="cls-4" x1="59.53558" y1="33.9751" x2="59.82475" y2="103.951"/><line class="cls-4" x1="26.28259" y1="67.51726" x2="91.05366" y2="67.51726"/><path class="cls-1" d="M57.02963,59.57067q.20988-.03549.42052-.065l-.66459.0893a11.85593,11.85593,0,0,1,3.07583.00205l-.6646-.0893a11.88819,11.88819,0,0,1,2.37125.58381V55.27017l-2.75432.451,1.9264,4.56937a1.6607,1.6607,0,0,1,.16178-.089l-.5972.252a1.28034,1.28034,0,0,1,.27737-.08021l-.6646.0893a1.341,1.341,0,0,1,.28054-.00308l-.66459-.0893a1.52922,1.52922,0,0,1,.33024.08522l-.5972-.252a1.87583,1.87583,0,0,1,.40811.23856l-.506-.39091a2.24371,2.24371,0,0,1,.34305.347l-.39091-.506a2.18371,2.18371,0,0,1,.24718.41794l-.252-.59719a1.81993,1.81993,0,0,1,.11343.39443l-.0893-.66459a1.4749,1.4749,0,0,1,.00439.33945l.0893-.6646a1.314,1.314,0,0,1-.07173.27177l.252-.5972a1.29144,1.29144,0,0,1-.14829.2519l.39091-.506a1.513,1.513,0,0,1-.17437.17694l.506-.39091a1.2929,1.2929,0,0,1-.24972.15194l.5972-.252a1.3139,1.3139,0,0,1-.2707.07567l.6646-.0893a1.4745,1.4745,0,0,1-.33948.00055l.6646.08931a1.82,1.82,0,0,1-.39605-.10768l.5972.252a2.18412,2.18412,0,0,1-.4215-.24107l.506.39091a2.19254,2.19254,0,0,1-.38917-.38551l.39091.506a1.88451,1.88451,0,0,1-.20726-.357l.252.5972a1.53057,1.53057,0,0,1-.09-.329l.0893.6646a1.34171,1.34171,0,0,1-.001-.28056l-.0893.6646a1.28025,1.28025,0,0,1,.07616-.27851l-.252.5972a1.66141,1.66141,0,0,1,.08659-.16306,2.5792,2.5792,0,0,0,.252-1.92639,2.50063,2.50063,0,0,0-4.56937-.5972c-1.56589,2.60035.79652,5.98635,3.70005,5.91486a3.737,3.737,0,0,0,2.42853-.97108,3.38154,3.38154,0,0,0,1.033-1.776A4.17871,4.17871,0,0,0,62.84205,56.635a3.82076,3.82076,0,0,0-4.62552-.66187A2.51392,2.51392,0,0,0,57.19364,59.095a2.38726,2.38726,0,0,0,1.02289,1.19548l.59719.252a2.51767,2.51767,0,0,0,1.3292,0l2.75432-.451.5972-.252a1.8892,1.8892,0,0,0,.70142-.64389,2.38242,2.38242,0,0,0,.53678-1.51478,2.96543,2.96543,0,0,0-.34132-1.2618,2.62344,2.62344,0,0,0-1.49408-1.1489,14.2051,14.2051,0,0,0-7.19681-.5209,2.50854,2.50854,0,0,0-1.49408,1.1489,2.49986,2.49986,0,0,0,.89688,3.42048,2.85015,2.85015,0,0,0,1.9264.252Z"/><path class="cls-1" d="M61.14689,67.17933a4.69943,4.69943,0,0,0,1.94372-5.26876,2.504,2.504,0,0,0-4.9107.6646l-.01354,7.66462a2.52771,2.52771,0,0,0,2.5,2.5,2.57815,2.57815,0,0,0,2.5-2.5,19.93106,19.93106,0,0,0-.95031-9.058,2.504,2.504,0,0,0-4.9107.6646l-.05921,9.78584,4.9107-.6646L60.47733,60.49677a2.504,2.504,0,0,0-4.9107.6646l.02318,10.20736a2.5,2.5,0,0,0,5,0V64.53326h-5V75.9236h5L60.579,71.1621l-4.9107.6646q.08272.45525.02454.09049.0222.25386.02363.50869c.00053.09083-.04354.80476.01315.35047a5.18821,5.18821,0,0,1-.16329.74611q-.06942.24519-.15858.48392.13484-.30747-.05928.10009a2.52851,2.52851,0,0,0,2.15867,3.7618l3.62955-.04378a2.5,2.5,0,0,0,0-5h-2.334a2.5,2.5,0,0,0,0,5h2.34955a2.5,2.5,0,0,0,0-5H56.76836a2.5,2.5,0,0,0,0,5h5.6588a2.5,2.5,0,0,0,0-5h-5.6588v5h4.38392v-5H58.80273v5h2.334v-5l-3.62955.04378,2.15868,3.7618a9.35532,9.35532,0,0,0,.82388-6.13257,2.504,2.504,0,0,0-4.9107.6646l.01082,4.7615a2.5,2.5,0,0,0,5,0V64.53326a2.5,2.5,0,0,0-5,0v6.83547h5l-.02318-10.20736-4.9107.6646L57.33545,72.2968a2.504,2.504,0,0,0,4.9107-.6646l.05921-9.78584-4.9107.6646a18.80112,18.80112,0,0,1,.59121,2.04448c.078.34667.14069.69541.20258,1.04518q.07006.46311.02162.12621.02382.19825.04173.39712a18.32027,18.32027,0,0,1-.08543,4.11584h5l.01354-7.66462-4.9107.6646c.10127.31291.00557.08587.03315-.087-.07783.48774.09806-.29677.01237.02036-.09285.34368.18122-.36771.01876-.053-.09418.18243.20311-.195.28981-.25816a2.56,2.56,0,0,0-.89688,3.42047,2.52814,2.52814,0,0,0,3.42047.89688Z"/><path class="cls-1" d="M65.73819,61.16742l-.10168-.04268,1.49407,1.1489.18014.43118V64.034a2.14337,2.14337,0,0,1-1.29393,1.286h-1.3292q-1.52751-2.1643-1.22334-1.08536-.0707-.57933-.05034-.16658a6.83807,6.83807,0,0,0,.00286,1.04653l.00572,2.09305.01145,4.18611h5a24.79822,24.79822,0,0,1-.13523-5.22656q.02542-.3108.05938-.6208c.01638-.15165.07071-.56217.01971-.20163.05821-.41152.12931-.82164.21-1.22934a25.26667,25.26667,0,0,1,.68317-2.656l-4.9107-.6646-1.06135,9.74279a2.504,2.504,0,0,0,4.9107.6646l1.41471-9.73761L64.71359,60.8a67.45331,67.45331,0,0,1,.37991,12.33005,2.504,2.504,0,0,0,4.9107.6646L71.862,62.51739l-4.9107-.6646-.12586,11.4734a2.5,2.5,0,0,0,5,0L72.11149,61.606l-4.91069.6646c.03958.26184.07749.52387.11609.78585l.03693.26221q-.0357-.27539-.00094-.00854.09336.72219.17529,1.44575.1618,1.44735.27,2.9c.14455,1.93679.21368,3.878.21766,5.82006a2.52864,2.52864,0,0,0,2.5,2.5,2.56522,2.56522,0,0,0,2.5-2.5q.12471-1.41487.29822-2.82466c.00051-.00409.1085-.80413.0457-.35945.03009-.21308.06022-.42614.09165-.639q.10372-.70253.22065-1.403.46782-2.8023,1.14782-5.56251l-4.9107-.6646-.60188,10.453L74.218,71.811q-.28108-1.23573-.47473-2.48691c-.1276-.816.04812.48127-.04635-.33922-.01932-.16773-.03875-.33543-.05617-.50337q-.0719-.69273-.11409-1.38808a33.47923,33.47923,0,0,1,.09475-5.1852h-5l.00646,11.43381h5a49.0863,49.0863,0,0,1-.1151-6.52481q.08012-1.59866.266-3.18974c.00083-.00708.10133-.806.04051-.35156.034-.25381.07233-.50713.11153-.76018.09149-.59064.19553-1.179.30747-1.76612l-4.9107-.66459a37.57525,37.57525,0,0,1,.058,6.017q-.05073.70311-.128,1.404c-.00074.00671-.097.80644-.03757.35285-.0333.254-.07318.50766-.11369.76055-.16224,1.01291-.37,2.01695-.61305,3.01344l4.91069.6646,1.04452-11.498a2.51307,2.51307,0,0,0-4.26777-1.76777l-1.80777,2.306a2.56707,2.56707,0,0,0,0,3.53554c.899.82523,2.67385,1.09915,3.53553,0l1.80777-2.306L69.44845,60.7994l-1.04452,11.498a2.504,2.504,0,0,0,4.9107.6646,39.70123,39.70123,0,0,0,1.01293-12.877,2.52968,2.52968,0,0,0-2.1677-2.45535,2.47547,2.47547,0,0,0-2.743,1.79075,51.50714,51.50714,0,0,0-.789,13.9216,2.5,2.5,0,0,0,5,0l-.00646-11.43381a2.52827,2.52827,0,0,0-2.5-2.5,2.567,2.567,0,0,0-2.5,2.5,35.62016,35.62016,0,0,0,.7752,11.232,2.491,2.491,0,0,0,2.743,1.79075,2.51721,2.51721,0,0,0,2.1677-2.45535l.60188-10.453a2.504,2.504,0,0,0-4.91069-.6646A80.97666,80.97666,0,0,0,68.01587,73.4759h5a84.9507,84.9507,0,0,0-.99368-12.53455,2.47683,2.47683,0,0,0-2.743-1.79075,2.50465,2.50465,0,0,0-2.1677,2.45535l-.28607,11.72024h5l.12586-11.4734a2.4974,2.4974,0,0,0-2.1677-2.45534,2.46953,2.46953,0,0,0-2.743,1.79074L65.1828,72.46546l4.9107.6646a67.45242,67.45242,0,0,0-.37991-12.33,2.54341,2.54341,0,0,0-2.1677-2.45535,2.46544,2.46544,0,0,0-2.743,1.79075L63.38818,69.873l4.91069.6646,1.06135-9.74279a2.47563,2.47563,0,0,0-2.1677-2.45535,2.51079,2.51079,0,0,0-2.743,1.79075,26.46067,26.46067,0,0,0-1.01558,11.26354,2.5,2.5,0,1,0,5,0l-.01145-4.18611a19.91727,19.91727,0,0,0-.12509-4.21912A3.02264,3.02264,0,0,0,63.871,60.82175,3.06146,3.06146,0,0,0,62.4,63.36942a2.821,2.821,0,0,0,2.009,2.61939,2.50566,2.50566,0,0,0,3.0753-1.7461,2.57965,2.57965,0,0,0-1.7461-3.07529Z"/><path class="cls-1" d="M49.85393,67.23848l.78392-2.62654-4.91069-.6646a102.03623,102.03623,0,0,1,.31,12.88943h5l.01045-16.52026h-5V75.08229h5L51,63.93706l-4.9107.6646c-.03619-.2475.05914.51512.05757.49938q.02909.29183.05056.58442.0591.80446.0605,1.61169.0018.73344-.04324,1.46572-.02248.366-.05613.73118c.00165-.01754-.0822.74962-.04941.50047a20.92048,20.92048,0,0,1-.60357,2.86862,22.001,22.001,0,0,1-.949,2.70759l4.65868,1.2618.99737-15.205h-5a102.09362,102.09362,0,0,1-.526,15.29064h5a58.9971,58.9971,0,0,1-.01409-14.37235l-4.9107.6646a35.74134,35.74134,0,0,1,.30224,9.87132h5l-.875-11.45989-4.91069.6646A21.84956,21.84956,0,0,1,44.865,73.64053h4.82139a42.30481,42.30481,0,0,1-.374-9.367h-5a29.92377,29.92377,0,0,1-.43511,8.46914,2.50063,2.50063,0,0,0,4.8214,1.3292l2.43183-9.12627L46.3091,63.6164a19.03308,19.03308,0,0,0,.531,9.55793c.52174,1.58848,2.94256,2.69463,4.17847,1.10317l3.00449-3.86884-3.92644-.506L51.39341,72.067l4.31736-2.5236c-.036-.05222-.34443-.553-.19467-.26127.13632.26555-.07837-.27953-.08636-.30795-.08062-.28658.02734-.17655.002.02476.008-.06357.029-.66518-.01095-.315-.03851.338.08562-.29268.088-.3026.05723-.24273.1115-.19922-.00549-.00086.03626-.06148.27117-.56754.16089-.28237-.09183.23749.31428-.2505-.08332.04854a2.93064,2.93064,0,0,1,.37-.22291c-.46645.25261.00025-.04467.1076-.004.26927.10194-.49012-.02882.08167-.00712.14451.00549.2879.00291.43222.01653-.54087-.051-.02819.00117.07739.06043q.20447.07.005-.01294-.24473-.114.09307.054c.0271-.02619.34137.22866.025-.02688.07483.06044.48017.54039.18434.13218l2.15868-3.7618L55.90265,63.959l1.26179,4.65868c.00472-.00295.66382-.34718.356-.22447.05784-.02306.666-.18586.44538-.14275-.17376.03394.44871-.015.4654-.01511.47827-.00268-.11076-.05414.38869.07239l-.5972-4.56937c-.07751.05649-.85584.52052-.48239.35361a4.46654,4.46654,0,0,1-.47316.15187q-.40825.0783-.156.04745.25326-.02379-.16195.007a4.46634,4.46634,0,0,1-.49683-.01c.45342.041-.4317-.14231-.54324-.18168l.5972,4.56938a4.28907,4.28907,0,0,1,2.14668-.52754,5.5181,5.5181,0,0,1,.65841.03546c-.41407-.05366.36781.09652.37233.09769a4.93,4.93,0,0,1,.7512.24374c-.35477-.15663.33921.20532.34883.21079l-.89688-3.42048c-.2307.4297.09856-.10716.27083-.191.20586-.10014.82844.03739.384-.12019a2.515,2.515,0,0,0-3.0753,1.74609,2.56317,2.56317,0,0,0,1.7461,3.0753,4.2363,4.2363,0,0,0,4.99173-1.98664,2.5435,2.5435,0,0,0-.89688-3.42047,9.54281,9.54281,0,0,0-9.32465-.06015,2.495,2.495,0,0,0-1.19355,2.491,2.54636,2.54636,0,0,0,1.79075,2.0784,6.87456,6.87456,0,0,0,6.16639-.87234,2.5515,2.5515,0,0,0,1.19355-2.491,2.49149,2.49149,0,0,0-1.79075-2.0784,7.052,7.052,0,0,0-5.50821.814,2.56393,2.56393,0,0,0-1.1489,2.82327,2.62746,2.62746,0,0,0,2.4107,1.8354l3.21313.41514c1.82316.23555,3.20168-2.32253,2.15868-3.7618a5.90184,5.90184,0,1,0-9.881,6.45469,2.56415,2.56415,0,0,0,3.42048.89688,2.53306,2.53306,0,0,0,.89688-3.42048L54.414,67.3791c-.74186-1.23815-2.90765-1.81786-3.92644-.506L47.483,70.742l4.17847,1.10317a13.95309,13.95309,0,0,1-.531-6.89954,2.50063,2.50063,0,1,0-4.82139-1.3292l-2.43184,9.12627,4.8214,1.3292a34.554,34.554,0,0,0,.61371-9.79834,2.5,2.5,0,0,0-5,0,47.55784,47.55784,0,0,0,.55266,10.6962c.393,2.457,4.3153,2.31136,4.82139,0a27.09184,27.09184,0,0,0-.58662-14.01246,2.514,2.514,0,0,0-2.743-1.79075,2.47356,2.47356,0,0,0-2.1677,2.45535l.875,11.45989a2.5,2.5,0,0,0,5,0,39.93693,39.93693,0,0,0-.48084-11.20052,2.48153,2.48153,0,0,0-2.743-1.79075,2.545,2.545,0,0,0-2.1677,2.45535,58.9971,58.9971,0,0,0,.01409,14.37235,2.5,2.5,0,0,0,5,0,102.09372,102.09372,0,0,0,.526-15.29064,2.5,2.5,0,0,0-5,0l-.99737,15.205a2.5,2.5,0,0,0,4.65867,1.2618,26.40518,26.40518,0,0,0,2.03675-14.82187A2.504,2.504,0,0,0,46,63.93706l.04768,11.14523a2.5,2.5,0,0,0,5,0V60.31651a2.5,2.5,0,1,0-5,0l-.01045,16.52026a2.5,2.5,0,0,0,5,0,102.03623,102.03623,0,0,0-.31-12.88943,2.504,2.504,0,0,0-4.9107-.6646l-.78393,2.62654a2.50063,2.50063,0,0,0,4.8214,1.3292Z"/><path class="cls-1" d="M51.86292,64.76894,55.6058,60.8205,51.338,59.05274l-1.133,9.95591a2.47316,2.47316,0,0,0,.73223,1.76777,2.56944,2.56944,0,0,0,1.43547.68758,2.48252,2.48252,0,0,0,2.743-1.79075,15.73389,15.73389,0,0,0,.33971-4.95774,17.4236,17.4236,0,0,0-1.39216-5.25207,2.51539,2.51539,0,0,0-4.56938.5972l-1.50074,8.3086,4.8214,1.3292.81114-5.5988-4.56937.5972,1.67,3.21483a2.51905,2.51905,0,0,0,3.42048.89688,2.5575,2.5575,0,0,0,.89688-3.42048l-1.67-3.21483a2.4887,2.4887,0,0,0-2.491-1.19355,2.44716,2.44716,0,0,0-2.0784,1.79075l-.81115,5.5988a2.74715,2.74715,0,0,0,.252,1.9264,2.5004,2.5004,0,0,0,4.56938-.5972l1.50074-8.3086L49.746,61.987c-.26989-.62432-.02752-.05587.01452.05565q.09326.24738.17648.4985.1389.41817.24929.84525.13272.512.2247,1.03339c.01508.08516.10662.59548.03592.19043-.07192-.412.018.1965.02557.28075a13.45445,13.45445,0,0,1,.03462,1.93741c-.008.14669-.018.29327-.03092.43961-.01443.16348-.14083.69435.009.03585-.07789.34227-.11554.69621-.19079,1.04017l4.9107.6646,1.133-9.95591A2.51307,2.51307,0,0,0,52.07027,57.285L48.32739,61.2334a2.5,2.5,0,0,0,3.53553,3.53554Z"/><path class="cls-1" d="M55.4874,78.692l9.32147.02364a2.5,2.5,0,0,0,1.76776-4.26777,2.91965,2.91965,0,0,0-1.76776-.73223c-.11858-.01464-.23867-.03683-.35781-.045.63947.04406.19146.02448.03958.002q-.40131-.05951-.80127-.12773-.7998-.13677-1.59314-.30829c-1.05777-.22888-2.10375-.50646-3.138-.82476L57.629,77.23313l6.56587,1.27818a2.50063,2.50063,0,0,0,1.3292-4.8214,20.83612,20.83612,0,0,0-8.91954-.80982,2.7519,2.7519,0,0,0-1.76777.73223,2.5,2.5,0,0,0,1.76777,4.26777l7.3848-.21037a2.504,2.504,0,0,0,.6646-4.9107,16.65059,16.65059,0,0,0-9.11979-.44883,2.52005,2.52005,0,0,0-1.74609,3.0753,2.55617,2.55617,0,0,0,3.07529,1.7461c.32875-.074.65886-.13576.9912-.191.46859-.07792-.40312.03793-.08082.012.13968-.01124.27894-.02915.4187-.04043a14.01889,14.01889,0,0,1,1.93359-.02174c.30561.0176.61671.07825.92166.08335l-.33112-.04386q.16645.02472.33228.05343.20725.03591.41331.07828a14.35291,14.35291,0,0,1,1.8626.51883l.66459-4.91069-7.3848.21037v5a19.1248,19.1248,0,0,1,4.08092-.10728q.21684.01793.43325.04064.17312.01833.34584.03985l-.31955-.04308c.33126.08884.69155.1091,1.02916.1768a19.419,19.419,0,0,1,2.02072.52429l1.3292-4.8214L58.9582,72.41174a2.50063,2.50063,0,1,0-1.3292,4.82139,41.62417,41.62417,0,0,0,7.17987,1.48247v-5L55.4874,73.692a2.5,2.5,0,0,0,0,5Z"/><path class="cls-1" d="M43.44523,64.04738V67.641a2.5,2.5,0,0,0,5,0l.02167-3.52383a2.5,2.5,0,1,0-5,0l-.14434,6.61975,4.65868-1.26179c-.06423-.13369-.12684-.268-.18989-.40228-.29811-.63475.08452.26018-.05324-.11878-.114-.31373-.2382-.6227-.34288-.94008a16.73522,16.73522,0,0,1-.51228-1.93388c-.05864-.2909-.10652-.58333-.15252-.87643.08137.51846.00548.00046-.00528-.108q-.022-.22136-.038-.44317a17.29269,17.29269,0,0,1-.017-2.11134h-5a29.48917,29.48917,0,0,1,.10517,4.09992c-.03044.66442-.08883,1.32573-.16,1.98692-.02277.21164-.03636.29289-.00012.03335q-.03243.23229-.06912.464c-.06079.38628-.131.77073-.206,1.15447h4.8214c-.08909-.256-.1711-.513-.237-.77606-.02973-.11866-.2049-.99866-.09512-.33221a6.91982,6.91982,0,0,1-.04531-1.51953q.00794-.15209.02315-.30363.04806-.4342-.00907.061a2.58451,2.58451,0,0,1,.17446-.7925c.07124-.262.162-.5152.25108-.77134-.20093.578.10913-.21066.16872-.32537l-4.65867-1.26179a15.8169,15.8169,0,0,1-.01654,2.386c-.01623.18886-.03532.37751-.05891.56561.04621-.3685.00679-.08312-.02978.12254-.07309.41116-.16553.817-.26946,1.2214h4.82139a8.73446,8.73446,0,0,1-.3762-1.17177c-.12285-.46816-.00639.25462-.0189-.046-.00855-.2056-.02916-.40938-.02885-.61574.00025-.17175.01129-.3421.02059-.5134.03448-.63459-.1358.465.0308-.14812.054-.19856.096-.39866.15925-.59511.041-.1271.29021-.68245.05237-.16564l-4.65868-1.2618a22.97784,22.97784,0,0,1-.01989,3.14907c-.021.27173-.05076.54224-.07772.81339-.05486.55165.06957-.33688-.03644.2607-.0953.53727-.19176,1.07125-.31347,1.60354l4.91069.6646-.17757-8.8762a2.504,2.504,0,0,0-4.9107-.6646,14.877,14.877,0,0,0,.2911,9.68456,2.53634,2.53634,0,0,0,2.743,1.79075,2.49259,2.49259,0,0,0,2.1677-2.45535l-.0947-8.77208a2.5,2.5,0,0,0-5,0v9.38381h5V63.84012h-5l.0293,6.49878,4.9107-.6646a15.4963,15.4963,0,0,1-.55458-1.71818q-.11189-.4376-.19675-.8815c-.01992-.10413-.13939-1.0327-.08032-.45154a15.79821,15.79821,0,0,1,.036-3.604h-5l-.01185,8.81109h5V65.63854a2.5,2.5,0,1,0-5,0v7.951a2.5,2.5,0,0,0,5,0v-7.951h-5v6.19161a2.5,2.5,0,0,0,5,0l.01185-8.81109a2.52783,2.52783,0,0,0-2.5-2.5,2.57687,2.57687,0,0,0-2.5,2.5,16.65969,16.65969,0,0,0,.97422,7.98444,2.53457,2.53457,0,0,0,2.743,1.79075,2.49464,2.49464,0,0,0,2.1677-2.45535l-.0293-6.49878a2.5,2.5,0,0,0-5,0v6.77836a2.5,2.5,0,0,0,5,0V61.23467h-5l.0947,8.77208,4.9107-.6646a12.84829,12.84829,0,0,1-.57874-1.87823q-.05922-.26684-.10613-.53608c-.02044-.116-.06519-.62138-.02073-.09255-.02753-.32748-.06074-.65222-.0722-.98108q-.01713-.49168.00375-.98373.00949-.21838.02662-.43646c.00511-.06565.06855-.66567.02579-.31965-.03784.30616.02783-.15457.03728-.20793.03178-.17936.06693-.35813.10681-.53588.07985-.35589.17812-.70639.28645-1.05457l-4.9107-.6646.17757,8.8762a2.504,2.504,0,0,0,4.9107.6646,25.36959,25.36959,0,0,0,.62613-7.1559,2.56217,2.56217,0,0,0-1.8354-2.4107,2.528,2.528,0,0,0-2.82327,1.1489,8.83806,8.83806,0,0,0-.3431,7.10859,2.5946,2.5946,0,0,0,2.41069,1.8354,2.56125,2.56125,0,0,0,2.4107-1.8354,18.002,18.002,0,0,0,.5533-5.62474,2.50005,2.50005,0,0,0-4.65868-1.2618,10.96477,10.96477,0,0,0-.735,8.61243,2.56363,2.56363,0,0,0,2.4107,1.8354,2.53415,2.53415,0,0,0,2.4107-1.8354,31.76942,31.76942,0,0,0,.50869-9.06785,2.5,2.5,0,0,0-5,0,19.55619,19.55619,0,0,0,1.99369,9.45757,2.51171,2.51171,0,0,0,2.82328,1.1489,2.58194,2.58194,0,0,0,1.8354-2.4107l.14434-6.61975h-5L43.44523,67.641h5V64.04738a2.5,2.5,0,1,0-5,0Z"/><path class="cls-1" d="M76.20426,65.78236V63.44223h-5l.03487,8.22738h5a35.98545,35.98545,0,0,1-.142-5.808,27.14479,27.14479,0,0,1,.78179-5.33417l-4.9107-.6646-.72972,10.95079h5a36.14655,36.14655,0,0,1,.005-5.36815q.048-.623.11784-1.244c.02328-.20688.0462-.41408.07512-.62027-.06729.4797.05136-.30823.054-.32474.14395-.90538.3266-1.80334.53778-2.69532l-4.9107-.6646L72.06377,69.891a2.52682,2.52682,0,0,0,2.5,2.5,2.55567,2.55567,0,0,0,2.5-2.5c.04484-.85353.10387-1.70607.18233-2.55721q.05885-.63827.1309-1.27522.036-.31847.07549-.63651c.00889-.072.08273-.6289.02712-.22517.23326-1.69363.54217-3.37559.91253-5.04444H73.57075c.07738.30139.14893.60375.20737.90945.0113.05913.10987.6762.06574.35845-.03829-.27565.01811.199.02245.24679a13.3831,13.3831,0,0,1,.03311,1.98058c-.00894.15533-.02347.3101-.03489.46523-.01587.21552-.02892.28888.0067.03023-.04239.30774-.10034.61434-.16645.91781a13.80288,13.80288,0,0,1-.60855,2.00658l4.9107.6646a22.61,22.61,0,0,1,.00941-3.70907q.05469-.45579.00025-.073.03468-.24525.07578-.48951.06165-.36635.13771-.7301c.13535-.64721.30848-1.284.50732-1.91438l-4.9107-.6646-.03794,9.75794,4.9107-.6646c-.2264-.7991-.42149-1.6059-.57391-2.42252-.04572-.245-.08567-.49056-.12652-.73635-.0273-.16426-.053-.348-.01606-.07508-.06127-.4522-.10369-.90775-.13777-1.36272a26.60183,26.60183,0,0,1,.11808-5.096h-5L72.9392,72.08477h5V62.73954a2.5,2.5,0,0,0-5,0l-.07095,7.77772,4.91069-.6646c-.22328-.93216-.4121-1.87126-.55652-2.819q-.02869-.18525-.0546-.37091.04224.31572.00831.045c-.02059-.20719-.04859-.41375-.06973-.62094q-.07611-.746-.11879-1.49483a33.56356,33.56356,0,0,1,.17517-5.73867,2.50563,2.50563,0,0,0-2.5-2.5,2.57313,2.57313,0,0,0-2.5,2.5,35.59305,35.59305,0,0,0,.79477,12.32849,2.504,2.504,0,0,0,4.9107-.6646l.07095-7.77772h-5v9.34523a2.5,2.5,0,1,0,5,0l.02408-12.53259a2.52766,2.52766,0,0,0-2.5-2.5,2.574,2.574,0,0,0-2.5,2.5,28.43277,28.43277,0,0,0,.91479,11.0219,2.51161,2.51161,0,0,0,4.91069-.6646l.03794-9.75794a2.504,2.504,0,0,0-4.9107-.6646,21.23352,21.23352,0,0,0-.90907,8.24524,2.504,2.504,0,0,0,4.9107.6646,15.88173,15.88173,0,0,0,.47451-9.57352c-.59835-2.33057-4.28123-2.434-4.82139,0a67.48441,67.48441,0,0,0-1.507,11.06775h5l.05374-9.99441a2.504,2.504,0,0,0-4.9107-.6646,38.418,38.418,0,0,0-.96833,11.58166,2.5,2.5,0,0,0,5,0l.72972-10.95079a2.504,2.504,0,0,0-4.91069-.6646,37.991,37.991,0,0,0-.81837,12.47134,2.5,2.5,0,0,0,5,0l-.03487-8.22738a2.5,2.5,0,0,0-5,0v2.34013a2.5,2.5,0,1,0,5,0Z"/><path class="cls-1" d="M52.90955,80.22853c.60179.07818-.37947-.05705.17012.02276.2431.0353.48635.06941.72929.10589q.62466.0938,1.24765.19821,1.29785.21752,2.58748.48081,2.57907.52707,5.11579,1.23491l1.32919-4.8214L54.876,75.66794l-.6646,4.91069,9.55417,1.20009L63.101,76.868c-.20036.03652-.40085.07212-.602.10405q-.20112.03193-.40279.0602.442-.0588.15965-.02459c-.40609.03534-.80961.08372-1.21676.10919a22.6822,22.6822,0,0,1-2.54417.01684q-.61019-.03039-1.21821-.09289c-.09027-.00932-.785-.08438-.144-.00885-.20195-.02379-.40326-.05906-.60384-.09259a23.35243,23.35243,0,0,1-2.57945-.58867,2.52834,2.52834,0,0,0-3.07529,1.7461,2.55742,2.55742,0,0,0,1.7461,3.07529L63.21433,84.661l.6646-4.9107L53.08705,78.47447v5a25.60524,25.60524,0,0,1,4.46682-.17362q.51987.02617,1.03828.07384.25914.02384.51779.05281c.09714.011.7766.04386.16122.01782a12.4061,12.4061,0,0,1,2.24748.43563l.6646-4.9107-7.32547-.16247a2.504,2.504,0,0,0-.6646,4.9107l8.05358,1.34476.6646-4.9107a26.67645,26.67645,0,0,1-3.97806.0271q-.47043-.03284-.93943-.08285a4.89137,4.89137,0,0,1-.52045-.06037c.21168.04646.3214.04741.04184.00282-.69062-.11014-1.37579-.23928-2.05735-.39664L54.1287,84.464,62.871,85.75118a2.74329,2.74329,0,0,0,1.92639-.252,2.5004,2.5004,0,0,0-.59719-4.56937,48.67151,48.67151,0,0,0-10.301-1.08786,2.50147,2.50147,0,0,0-2.45535,2.1677,2.53862,2.53862,0,0,0,1.79075,2.743,26.3984,26.3984,0,0,0,9.66931,1.76516,2.5,2.5,0,1,0,0-5l-7.0031-.0236v5c.47977-.00886.959-.00248,1.4379.02913.20533.01355.40938.03455.61434.052q.435.05123-.05269-.01375.15266.0215.3047.04688a16.60858,16.60858,0,0,1,2.68669.67884,2.51748,2.51748,0,0,0,3.0753-1.7461,2.55989,2.55989,0,0,0-1.7461-3.0753,18.66792,18.66792,0,0,0-6.32014-.97173,2.5,2.5,0,0,0,0,5l7.0031.0236v-5c-.75124.00313-1.50161-.023-2.25021-.08755q-.306-.0264-.61137-.06065c-.07226-.00807-.64383-.08926-.2772-.03247.36717.05688-.20411-.03457-.27531-.04629q-.3031-.04987-.60495-.10727a24.44138,24.44138,0,0,1-4.32107-1.25233l-.6646,4.9107a45.46905,45.46905,0,0,1,4.74047.22569,10.4137,10.4137,0,0,1,1.15311.1318c-.43765-.09534-.04907-.007.17166.02549q.261.03834.52147.07991c.79906.12711,1.59381.27768,2.3851.44636l1.3292-4.82139L55.4579,79.6426a2.7434,2.7434,0,0,0-1.92639.252A2.50041,2.50041,0,0,0,54.1287,84.464a28.91585,28.91585,0,0,0,8.78265.68854,2.52641,2.52641,0,0,0,2.45535-2.1677,2.47,2.47,0,0,0-1.79075-2.743l-8.05358-1.34476-.6646,4.9107,7.32547.16247a2.504,2.504,0,0,0,.6646-4.9107,27.52807,27.52807,0,0,0-9.76079-.58508,2.74,2.74,0,0,0-1.76777.73223,2.54036,2.54036,0,0,0-.73223,1.76777,2.57418,2.57418,0,0,0,2.5,2.5l10.79188,1.27582a2.47407,2.47407,0,0,0,2.45535-2.1677,2.51617,2.51617,0,0,0-1.79075-2.743L53.94941,76.35071,52.62022,81.1721a25.87912,25.87912,0,0,0,11.81.51732,2.48205,2.48205,0,0,0,1.79075-2.743,2.54686,2.54686,0,0,0-2.45535-2.1677L54.2114,75.57863a2.46778,2.46778,0,0,0-1.76777.73224,2.56944,2.56944,0,0,0-.68758,1.43546,2.47612,2.47612,0,0,0,1.79075,2.743l9.21308,1.78178a2.50063,2.50063,0,0,0,1.32919-4.8214,80.38358,80.38358,0,0,0-11.17952-2.22118,2.48592,2.48592,0,0,0-1.76776.73223,2.5,2.5,0,0,0,0,3.53554,2.94157,2.94157,0,0,0,1.76776.73223Z"/><path class="cls-1" d="M58.95728,58.74015,69.2298,58.7095v-5a38.68143,38.68143,0,0,1-6.258.12715q-.73189-.04558-1.4617-.11912-.398-.04035-.795-.08883a1.71486,1.71486,0,0,1-.39217-.05514c-1.05481-.165-2.1007-.36654-3.14-.61114l-.6646,4.91069,11.88305.215-.6646-4.9107c-.25674.0468-.51362.09257-.77133.13373-.00094.00015-.8017.112-.36871.05789q-.77673.09715-1.55788.15419-1.49654.1095-2.9989.0722c-1.0009-.02466-1.99754-.103-2.9917-.21979.43276.05083-.3673-.05542-.369-.05569q-.38664-.06086-.77162-.13189c-.51343-.09458-1.02344-.20448-1.53179-.32328l-.6646,4.9107,13.479.13692a2.5,2.5,0,0,0,0-5c-.99207-.03258-1.982-.098-2.96884-.2056q-.193-.02061-.38579-.04386-.42306-.05389-.18118-.02118c.25483.03356-.38063-.05644-.43644-.06508q-.76743-.11871-1.52962-.26844a38.43373,38.43373,0,0,1-5.7269-1.60414l-.6646,4.9107q2.714.1446,5.41792.42529c1.94744.20475,3.09688.36083,4.99164.6645a2.50063,2.50063,0,0,0,1.3292-4.8214A24.69979,24.69979,0,0,0,58.469,50.307v5a29.94254,29.94254,0,0,1,10.03246.55809l.6646-4.9107L56.52368,51.12a2.53143,2.53143,0,0,0-2.5,2.5,2.5782,2.5782,0,0,0,2.5,2.5l12.70006,1.66273v-5c-.48508-.01574-.96924-.04165-1.4527-.08517-.2416-.02175-.48274-.04779-.7236-.07648.49773.05929-.19488-.0309-.29589-.0474a23.8127,23.8127,0,0,1-2.95323-.67834q-.69762-.20762-1.38149-.45744c-.22779-.08322-.45162-.17786-.6796-.26012q-.24394-.09949.03705.01973-.16723-.07162-.333-.14667a24.36405,24.36405,0,0,1-2.6788-1.41574l-1.9264,4.56938,9.92566,2.37342a2.51632,2.51632,0,0,0,2.94929-1.4475,2.471,2.471,0,0,0-1.02289-3.12187,20.19219,20.19219,0,0,0-10.22309-1.73564,2.5,2.5,0,1,0,0,5l9.21905-.02793-.6646-4.9107c.27522-.03711.046-.00938-.09743.00344-.21251.019-.42452.03947-.63736.05431q-.5106.03561-1.02242.04506a20.199,20.199,0,0,1-2.30008-.08867c-.16987-.01627-.33933-.03524-.5088-.05522-.42126-.04967.31955.06991-.09556-.01762-.37524-.07911-.75618-.13168-1.13129-.21394A21.085,21.085,0,0,1,59.01042,49.44l.59719,4.56937c-.24514.10508-.0773.034.07382-.01719.1522-.05158.30333-.1056.45686-.15321.30671-.09512.61819-.17627.93223-.24333.15719-.03356.31616-.05754.47345-.09009-.25934.05366-.14491.01165.052-.00633.36058-.03294.72088-.05349,1.08312-.05386q.48234-.00049.9631.04124c.047.00408.52143.06752.266.026-.25718-.04178.2175.04624.26169.05509a11.13723,11.13723,0,0,1,1.95731.59261l1.3292-4.8214a24.08822,24.08822,0,0,0-7.009-.83631,2.50955,2.50955,0,0,0-2.45535,2.1677,2.46688,2.46688,0,0,0,1.79075,2.743l9.20255,1.40092v-4.8214c-.15842.06032-.94622.19529-.32449.15213-.09275.00643-.82062-.04278-.4834.01668.34875.06149-.385-.12525-.4594-.15512.68708.27586-.48745-.45712.06183.00768a2.5,2.5,0,1,0-3.53554,3.53553,6.097,6.097,0,0,0,6.07019,1.2645,2.57757,2.57757,0,0,0,1.8354-2.4107,2.51808,2.51808,0,0,0-1.8354-2.4107L61.112,48.59185l-.6646,4.9107a22.7159,22.7159,0,0,1,3.06819.1144q.26654.03213-.00186-.00525l.26426.03971c.26385.04324.527.088.78943.1394.52489.10285,1.04372.22951,1.55982.36945a2.53189,2.53189,0,0,0,3.0753-1.7461,2.57458,2.57458,0,0,0-1.7461-3.0753A13.48968,13.48968,0,0,0,57.084,49.692a2.471,2.471,0,0,0-1.19355,2.491,2.53656,2.53656,0,0,0,1.79075,2.07839,23.34173,23.34173,0,0,0,10.66752.8943,2.504,2.504,0,0,0-.6646-4.9107l-9.21905.02793v5a18.17416,18.17416,0,0,1,2.104-.10358q.55791.00668,1.11467.04879c.1649.01259.32925.03012.494.0448l.24645.02766q-.32067-.04525-.05046-.00443c.69292.12885,1.37882.25653,2.05839.44848q.47719.13479.94631.29682.293.10126.582.21343c.06627.02562.56357.23833.20423.081l1.9264-4.56937-9.92566-2.37343a2.5038,2.5038,0,0,0-1.9264,4.56938,26.67751,26.67751,0,0,0,12.98482,3.83027,2.52061,2.52061,0,0,0,2.5-2.5,2.5782,2.5782,0,0,0-2.5-2.5L56.52368,51.12v5l12.64238-.16556a2.504,2.504,0,0,0,.6646-4.9107A34.79049,34.79049,0,0,0,58.469,50.307a2.55864,2.55864,0,0,0-2.5,2.5,2.53085,2.53085,0,0,0,2.5,2.5,23.44316,23.44316,0,0,1,2.52254-.0489q.56762.02107,1.13362.07114c.20962.01841.41868.041.62787.06363l.25059.0305q-.309-.04026-.03978-.00047a27.80465,27.80465,0,0,1,4.74253,1.28163l1.3292-4.8214a111.76248,111.76248,0,0,0-11.73876-1.26839,2.48683,2.48683,0,0,0-2.45535,2.1677,2.52849,2.52849,0,0,0,1.79075,2.743,40.68983,40.68983,0,0,0,12.558,2.3869v-5l-13.479-.13692c-2.77882-.02822-3.44855,4.26012-.6646,4.9107a34.26727,34.26727,0,0,0,14.01934.31264,2.504,2.504,0,0,0-.6646-4.9107l-11.88305-.215c-2.78737-.05042-3.43764,4.25806-.6646,4.9107a40.76128,40.76128,0,0,0,13.37616.92569,2.5,2.5,0,0,0,0-5l-10.27252.03065a2.5,2.5,0,0,0,0,5Z"/><path class="cls-1" d="M56.35686,56.23631a42.9918,42.9918,0,0,0,12.57572-2.116,2.51717,2.51717,0,0,0,1.79074-2.743,2.46564,2.46564,0,0,0-2.45534-2.1677l-9.96993,1.087a2.51307,2.51307,0,0,0-1.76777,4.26777l1.5247,1.70636a2.51623,2.51623,0,0,0,3.53554,0,2.55819,2.55819,0,0,0,0-3.53553l-1.5247-1.70637-1.76777,4.26777,9.96993-1.087-.6646-4.9107a40.623,40.623,0,0,1-5.76782,1.44721q-.38732.067-.77587.12657c-.11859.01814-.77978.10819-.225.03649q-.724.09357-1.45091.16151c-1.00677.09359-2.01611.14615-3.02695.16561a2.5,2.5,0,0,0,0,5Z"/><polygon class="cls-5" points="60.286 57.622 54.864 66.81 58.93 76.706 65.03 67.517 60.286 57.622"/><line class="cls-5" x1="54.61993" y1="67.51726" x2="65.02957" y2="67.51726"/></g></g></svg>