<svg xmlns="http://www.w3.org/2000/svg" viewBox="0 0 119.32823 119.32823"><defs><style>.cls-1{fill:none;stroke:#ebeced;stroke-miterlimit:10;stroke-width:3px;}.cls-2{fill:#009151;}.cls-3{fill:#ebeced;}</style></defs><g id="Layer_2" data-name="Layer 2"><g id="Layer_1-2" data-name="Layer 1"><line class="cls-1" x1="59.66412" y1="59.66412" x2="59.66412" y2="59.66412"/><circle class="cls-2" cx="59.66412" cy="59.66412" r="59.66412"/><path class="cls-3" d="M28.63713,26.28707a37.37585,37.37585,0,0,0-3.69589,23.10157A34.695,34.695,0,0,0,34.62206,67.713,44.1425,44.1425,0,0,0,52.35282,78.517c7.58583,2.47495,15.67638,2.38838,23.366,4.38756a19.79122,19.79122,0,0,1,9.65448,5.19783c2.03831,2.14036,3.1942,4.75576,1.80245,7.2183a2.52222,2.52222,0,0,0,1.49408,3.67249,7.3406,7.3406,0,0,0,8.57882-5.483c1.11106-4.09258-1.37816-7.13774-3.69239-10.20751-1.12785-1.49608-2.21036-2.99347-2.16918-4.93769.04493-2.12107.53968-4.22041.63212-6.346a40.91336,40.91336,0,0,0-1.317-12.01138C86.31632,43.14567,72.3705,31.06281,56.547,25.03162a74.41517,74.41517,0,0,0-29.76391-4.70033c-3.20408.14754-3.22216,5.14838,0,5,15.50033-.71377,32.078,3.532,44.21994,13.51013A44.52561,44.52561,0,0,1,84.37378,56.703a37.906,37.906,0,0,1,2.51416,10.16432,37.31556,37.31556,0,0,1,.12224,5.33561c-.09723,1.988-.53415,3.9447-.61745,5.92836-.20414,4.86168,3.34665,7.63239,5.57483,11.478a5.021,5.021,0,0,1,.44274.87636,3.37474,3.37474,0,0,1,.10393.3993c.04531.21429.0206-.08249.028.2955a4.20668,4.20668,0,0,1-.2584,1.45776,3.04365,3.04365,0,0,1-.99711,1.26172,1.56884,1.56884,0,0,1-1.28769.27186l1.49408,3.67249c3.61793-6.4015-1.08442-12.95855-6.4741-16.44171-6.631-4.28537-14.99021-4.56341-22.56315-5.72866-7.16505-1.1025-13.86862-3.33528-19.79167-7.60225A32.02508,32.02508,0,0,1,31.17909,53.4209a31.21268,31.21268,0,0,1,1.77539-24.61024c1.43733-2.869-2.87432-5.404-4.31735-2.52359Z"/><path class="cls-3" d="M25.78551,23.89592c.12388.22005.2437.44176.3541.66895q.08235.16947.15884.34165-.19153-.46445-.03649-.07673a14.46052,14.46052,0,0,1,.44167,1.42678c.05758.24193.0986.48612.14843.7295q.06553.42328-.00958-.11265.02207.1845.03812.36962a11.50213,11.50213,0,0,1,.03575,1.39158q-.01123.325-.04038.64887-.01689.18511-.03972.3696.07371-.5359.00737-.1127c-.104.48811-.20073.97144-.34944,1.449-.07435.23876-.16318.47128-.246.707q-.15521.38769.03645-.07683-.07638.17211-.15849.34157a11.892,11.892,0,0,1-.752,1.31619,2.51919,2.51919,0,0,0,.89688,3.42047,2.55675,2.55675,0,0,0,3.42048-.89688,14.03961,14.03961,0,0,0,.41133-14.4286,2.50041,2.50041,0,0,0-4.31736,2.5236Z"/><path class="cls-3" d="M78.42489,73.20051l-4.11054-7.42066-.85512.85512A15.66572,15.66572,0,0,1,80.217,72.08354c.45135.66,1.535.03549,1.07934-.6309a16.80606,16.80606,0,0,0-7.20616-5.897.63061.63061,0,0,0-.85511.85512l4.11053,7.42066c.38987.70383,1.46984.07406,1.07934-.6309Z"/><path class="cls-3" d="M39.19157,35.24372a294.21763,294.21763,0,0,1,29.67158,25.5972c.57319.56553,1.45765-.31779.88388-.88388A296.578,296.578,0,0,0,39.82247,34.16438c-.64277-.484-1.26642.60085-.6309,1.07934Z"/><path class="cls-3" d="M68.82145,61.74446a29.159,29.159,0,0,1-21.25922-5.59652c-.63843-.48882-1.26168.59637-.6309,1.07934a30.17667,30.17667,0,0,0,21.89012,5.76718c.78777-.09813.7976-1.34935,0-1.25Z"/><path class="cls-3" d="M68.39332,47.38043a19.81353,19.81353,0,0,1,3.4549,14.21534c-.11845.78693,1.08583,1.12634,1.20535.3323a21.0723,21.0723,0,0,0-3.58092-15.17854c-.45663-.6554-1.54069-.03129-1.07933.6309Z"/><path class="cls-3" d="M56.05844,36.63914a17.78532,17.78532,0,0,1,3.26617,12.30205c-.08869.79831,1.162.792,1.25,0a18.83978,18.83978,0,0,0-3.43684-12.93294c-.4628-.64976-1.54734-.02617-1.07933.63089Z"/><path class="cls-3" d="M41.55433,46.68405A29.62389,29.62389,0,0,0,55.832,51.50053c.80255.05881.79881-1.19146,0-1.25a28.33857,28.33857,0,0,1-13.6468-4.64582c-.67108-.44767-1.29763.63457-.63089,1.07934Z"/></g></g></svg>