<svg xmlns="http://www.w3.org/2000/svg" viewBox="0 0 119.32823 119.32823"><defs><style>.cls-1{fill:#fbae42;}.cls-2,.cls-3{fill:none;stroke:#ebeced;stroke-miterlimit:10;}.cls-2{stroke-width:6.41426px;}.cls-3{stroke-width:2.74897px;}.cls-4{fill:#ebeced;}</style></defs><g id="Layer_2" data-name="Layer 2"><g id="Layer_1-2" data-name="Layer 1"><circle class="cls-1" cx="59.66412" cy="59.66412" r="59.66412"/><line class="cls-2" x1="23.66684" y1="26.7171" x2="23.81623" y2="86.83842"/><line class="cls-2" x1="23.66684" y1="26.7171" x2="23.81623" y2="86.83842"/><line class="cls-2" x1="23.52733" y1="28.55005" x2="44.52266" y2="40.2375"/><line class="cls-2" x1="24.56038" y1="84.89677" x2="45.5557" y2="96.58423"/><line class="cls-2" x1="46.07526" y1="38.13449" x2="46.22466" y2="98.25581"/><line class="cls-2" x1="73.24307" y1="21.07242" x2="73.39247" y2="81.19374"/><line class="cls-2" x1="73.24307" y1="21.07242" x2="73.39247" y2="81.19374"/><line class="cls-2" x1="73.10357" y1="22.90537" x2="94.0989" y2="34.59282"/><line class="cls-2" x1="74.13661" y1="79.2521" x2="95.13194" y2="90.93955"/><line class="cls-2" x1="95.6515" y1="32.48981" x2="95.8009" y2="92.61114"/><line class="cls-2" x1="46.29985" y1="39.14631" x2="73.28018" y2="21.80373"/><line class="cls-2" x1="47.19919" y1="96.37684" x2="71.48149" y2="80.76851"/><line class="cls-3" x1="30.08406" y1="51.97943" x2="36.72316" y2="48.94319"/><line class="cls-3" x1="32.03284" y1="47.06521" x2="35.5856" y2="53.4349"/><path class="cls-3" d="M30.68368,62.24148l.89943,4.76969"/><path class="cls-3" d="M30.68369,59.42388l2.24858-4.12012"/><path class="cls-3" d="M32.48257,69.88564q1.574,2.03165,3.148,4.06326"/><path class="cls-3" d="M38.7786,77.41777q2.24858,1.598,4.49715,3.196"/><path class="cls-3" d="M50.921,79.1522l4.04744-2.60164"/><path class="cls-3" d="M57.217,74.81611l3.59774-3.90246"/><path class="cls-4" d="M61.07936,59.29192a1.57768,1.57768,0,0,0-.31745.08757,3.96358,3.96358,0,0,0-.79708.36541,4.291,4.291,0,0,0-1.23195,1.23231,3.75859,3.75859,0,0,0-.48955,1.096,5.643,5.643,0,0,0-.138.87206,2.017,2.017,0,0,0-.01638.3374,4.20058,4.20058,0,0,0,.43207,1.69986,1.53364,1.53364,0,0,0,.1431.25788,3.74745,3.74745,0,0,0,.57371.69944,3.81861,3.81861,0,0,0,1.54787.86779,4.80576,4.80576,0,0,0,.88925.12658,4.55987,4.55987,0,0,0,.93351-.09218,4.07467,4.07467,0,0,0,1.17735-.424,3.86784,3.86784,0,0,0,.998-.7407,5.06023,5.06023,0,0,0,.54159-.68025,1.80067,1.80067,0,0,0,.17083-.30734,3.555,3.555,0,0,0,.40586-1.73559,3.84913,3.84913,0,0,0-.13849-.89312,4.02194,4.02194,0,0,0-.34688-.80083,4.16483,4.16483,0,0,0-3.52821-1.9512,5.36062,5.36062,0,0,0-.87807.1004,1.717,1.717,0,0,0-.32421.085,3.69324,3.69324,0,0,0-1.47677.89837,3.42522,3.42522,0,0,0-.87216,1.53471,3.82454,3.82454,0,0,0,.01063,1.82685,4.11212,4.11212,0,0,0,1.76588,2.39272,3.63428,3.63428,0,0,0,1.71231.53341,2.37767,2.37767,0,0,0,.60813-.037,3.949,3.949,0,0,0,.45953-.07034,3.00353,3.00353,0,0,0,.58617-.24178c.03406-.02075.06536-.04431.09767-.06756a3.29468,3.29468,0,0,0,.67932-.57812,3.59446,3.59446,0,0,0,.50892-.72877,3.76233,3.76233,0,0,0,.31683-.84165,4.45646,4.45646,0,0,0,.10306-.91678,3.664,3.664,0,0,0-1.69326-3.02419,3.56715,3.56715,0,0,0-3.30888-.16972,3.4373,3.4373,0,0,0-1.2699.854,3.51276,3.51276,0,0,0-.86889,1.55674,3.31675,3.31675,0,0,0-.09647.91653,3.23665,3.23665,0,0,0,.27972,1.20371,3.30483,3.30483,0,0,0,.91364,1.30262,3.8857,3.8857,0,0,0,1.6323.88552,3.592,3.592,0,0,0,1.89946-.037,2.44114,2.44114,0,0,0,1.39041-1.08733,3.57489,3.57489,0,0,0,.18867-.41608,2.75786,2.75786,0,0,0,.21184-.61279,4.02658,4.02658,0,0,0-.041-1.84316,5.11389,5.11389,0,0,0-.34166-.84782,1.93054,1.93054,0,0,0-.18718-.31056,4.28658,4.28658,0,0,0-1.294-1.25457,3.9517,3.9517,0,0,0-1.768-.51766,2.54869,2.54869,0,0,0-1.61985.671,2.29081,2.29081,0,0,0,0,3.23969l.46363.3582a2.28026,2.28026,0,0,0,1.15622.31277l.04147.00447-.609-.08183a1.5509,1.5509,0,0,1,.392.10779l-.54723-.23093a1.7172,1.7172,0,0,1,.3112.18289l-.46363-.3582a1.87016,1.87016,0,0,1,.31467.31042l-.3582-.46363a1.96664,1.96664,0,0,1,.24457.41607l-.23093-.54722a1.87812,1.87812,0,0,1,.11787.42162l-.08183-.609a1.63555,1.63555,0,0,1,.001.43069l.08183-.609a1.47841,1.47841,0,0,1-.09637.33918l.23094-.54723a1.58793,1.58793,0,0,1-.09457.177l1.36906-1.05276a1.37977,1.37977,0,0,1-.25382.05945l.609-.08183a1.45318,1.45318,0,0,1-.30029-.00092l.609.08183a1.6037,1.6037,0,0,1-.37486-.09914l.54723.23093a1.73875,1.73875,0,0,1-.374-.2188l.46363.3582a1.69834,1.69834,0,0,1-.27132-.27469l.3582.46363a1.498,1.498,0,0,1-.16865-.29069l.23093.54723a1.3112,1.3112,0,0,1-.07743-.27975l.08183.609a1.19638,1.19638,0,0,1-.00032-.291l-.08183.609a1.22523,1.22523,0,0,1,.07183-.26154l-.23093.54723a1.34934,1.34934,0,0,1,.15546-.267l-.3582.46363a1.567,1.567,0,0,1,.24995-.25081l-.46363.3582a1.74862,1.74862,0,0,1,.34513-.20475l-.54723.23093a1.72292,1.72292,0,0,1,.4267-.1186l-.609.08183a1.55537,1.55537,0,0,1,.35859-.0009l-.609-.08183a1.372,1.372,0,0,1,.30675.081l-.54723-.23093a1.27083,1.27083,0,0,1,.274.16154l-.46363-.3582a1.321,1.321,0,0,1,.18891.19209l-.3582-.46364a1.403,1.403,0,0,1,.17077.29766l-.23093-.54723a1.57193,1.57193,0,0,1,.08944.33367l-.08183-.609a1.62857,1.62857,0,0,1,.00372.3854l.08183-.609a1.53972,1.53972,0,0,1-.09726.37075l.23093-.54723a1.41321,1.41321,0,0,1-.15072.26514l.3582-.46363a1.28917,1.28917,0,0,1-.21569.21992l.46363-.3582c-.032.02384-.06408.046-.09767.06756l.54723-.23094a1.45389,1.45389,0,0,1-.194.04028l.609-.08183a1.3084,1.3084,0,0,1-.30364-.00392l.609.08183a1.41636,1.41636,0,0,1-.32373-.093l.54723.23093a1.653,1.653,0,0,1-.32538-.19513l.46363.3582a1.89735,1.89735,0,0,1-.29977-.30161l.3582.46363a1.94054,1.94054,0,0,1-.236-.40059l.23093.54723a1.73146,1.73146,0,0,1-.1125-.40222l.08183.609a1.439,1.439,0,0,1,.0003-.37009l-.08183.609a1.28481,1.28481,0,0,1,.08047-.28428l-.23093.54723a1.27567,1.27567,0,0,1,.13512-.23081l-.3582.46363a1.36518,1.36518,0,0,1,.23012-.23023l-.46363.3582a1.44068,1.44068,0,0,1,.27178-.15849l-.54723.23093a1.6333,1.6333,0,0,1,.40829-.10972l-.609.08183a1.97059,1.97059,0,0,1,.47012.00275l-.609-.08183a2.14869,2.14869,0,0,1,.53061.146l-.54722-.23093a2.01866,2.01866,0,0,1,.40717.23759l-.46363-.3582a1.717,1.717,0,0,1,.27705.27281l-.3582-.46363a1.46,1.46,0,0,1,.17788.299l-.23093-.54723a1.35692,1.35692,0,0,1,.08526.30625l-.08183-.609a1.37421,1.37421,0,0,1,.001.33735l.08183-.609a1.4586,1.4586,0,0,1-.08574.31828l.23094-.54723a1.67185,1.67185,0,0,1-.20428.35271l.3582-.46363a2.00442,2.00442,0,0,1-.353.34862l.46363-.3582a2.232,2.232,0,0,1-.438.25433l.54722-.23094a2.09689,2.09689,0,0,1-.52346.14383l.609-.08183a1.81664,1.81664,0,0,1-.419.00137l.609.08183a1.57376,1.57376,0,0,1-.36571-.096l.54723.23094a1.48826,1.48826,0,0,1-.3-.17235l.46363.3582a1.45237,1.45237,0,0,1-.23051-.22581l.3582.46363a1.47223,1.47223,0,0,1-.19195-.32994l.23093.54722a1.67942,1.67942,0,0,1-.09824-.36974l.08183.609a1.91357,1.91357,0,0,1,.00206-.49533l-.08183.609a2.06017,2.06017,0,0,1,.13413-.48321l-.23093.54723a1.94982,1.94982,0,0,1,.23316-.40035l-.3582.46363a1.73272,1.73272,0,0,1,.27225-.27628l-.46363.3582a1.536,1.536,0,0,1,.33526-.19692l-.54722.23093a1.52168,1.52168,0,0,1,.31744-.08757,2.56292,2.56292,0,0,0,1.36906-1.05277,1.705,1.705,0,0,0,.27185-.85172,1.73527,1.73527,0,0,0-.04092-.91348,2.31721,2.31721,0,0,0-1.05276-1.36906l-.54723-.23093a2.3069,2.3069,0,0,0-1.218,0Z"/></g></g></svg>