<svg xmlns="http://www.w3.org/2000/svg" viewBox="0 0 119.32823 119.32823"><defs><style>.cls-1{fill:#f36f43;}.cls-2,.cls-3{fill:none;stroke:#ebeced;stroke-miterlimit:10;}.cls-2{stroke-width:5px;}.cls-3{stroke-width:3px;}.cls-4{fill:#ebeced;}</style></defs><g id="Layer_2" data-name="Layer 2"><g id="Layer_1-2" data-name="Layer 1"><circle class="cls-1" cx="59.66412" cy="59.66412" r="59.66412"/><path class="cls-2" d="M33.80425,20.0988H79.75388L93.65967,34.24019l-12.092,16.49829q-23.88172.29462-47.76343.58924Z"/><line class="cls-2" x1="52.3629" y1="51.60595" x2="52.14979" y2="96.88157"/><line class="cls-2" x1="64.32484" y1="51.95609" x2="64.11173" y2="97.23171"/><path class="cls-3" d="M28.25389,95.99757c-2.90973-1.15341-7.52622-3.70845-6.91519-3.90283.68785-.21882,7.37,2.75459,10.14227,2.206,2.33937-.463.45677-3.14935,1.383-3.22408,1.13911-.0919,3.83022,3.98356,5.53215,3.90284,1.82609-.08662,1.35033-4.90285,2.30506-4.921.99892-.019,1.90657,5.24619,3.68811,5.26034.83123.0066,1.6263-1.13171,2.30506-2.54533l.461.67876c2.12759-2.59655,3.19533-3.43126,3.6881-3.39377,1.09836.08354-.82085,4.4883.461,4.58159.59061.043,1.75582-.83694,2.30507-1.5272a3.67429,3.67429,0,0,0,.461-.84844c.53855-1.02294,1.9917-2.24223,2.76607-2.206,1.35994.06371.39736,3.98919,1.844,4.07252,1.457.08393,3.90742-3.813,5.07114-3.73314,1.22681.08417-.39489,4.49109.922,4.58159.44615.03066.9824-.45112,3.22708-2.206,3.032-2.37038,3.42576-2.56408,3.6881-2.54532.54091.03868.82426,1.00225-.461,5.26034.99751-.60643,2.48362-1.54009,4.14911-2.715,2.17625-1.53526,3.16315-2.42738,3.68811-2.37563,1.11891.1103-1.91343,4.30647,0,4.58159,2.007.28856,7.88212-3.96275,9.22024-3.73315,1.32689.22767-3.71921,4.53326-1.844,4.921,2.00956.41548,10.17232-4.0399,11.52529-3.73314.52091.1181.14986.96869-4.61011,4.58159C70.88743,99.25534,40.87532,101.00073,28.25389,95.99757Z"/><path class="cls-4" d="M45.98733,39.96073c.47937-1.0524,1.92973-3.13129,3.15581-1.764.6296.70214.551,1.61089,1.64677,1.88246,2.00389.49666,2.95958-1.38884,3.1-3.02888l-.625.625c2.50485-.25246,3.69631,4.576,6.53387,2.35134.88056-.69036,1.3575-1.23792,2.55428-1.23931a17.7135,17.7135,0,0,1,2.85468.395,10.27831,10.27831,0,0,0,2.54791.18115,5.29364,5.29364,0,0,0,1.14756-.22733,10.42466,10.42466,0,0,1,1.89183-.38727c-.36114.71658.71684,1.35018,1.07934.6309a1.20232,1.20232,0,0,0-.55268-1.68742c-.91483-.51738-1.85434-.04543-2.75079.23844-2.20545.6984-4.4477-.54747-6.68119-.38244a3.68224,3.68224,0,0,0-2.20795.87544c-.47389.4114-.87445.99337-1.57473.88449a2.13767,2.13767,0,0,1-.97875-.61038c-1.14534-1.02074-2.14324-2.44593-3.86338-2.27256a.64682.64682,0,0,0-.625.625c-.05636.65823-.18648,1.55181-.9354,1.76493-.86572.24636-1.02244-.68256-1.35388-1.25544a2.06968,2.06968,0,0,0-1.58143-.97176c-1.92-.27626-3.13941,1.15711-3.86121,2.74174-.331.72667.746,1.36275,1.07934.6309Z"/><path class="cls-4" d="M46.6522,31.71751l3.2696-2.74-1.04461-.27579A4.08748,4.08748,0,0,0,52.94741,31.891c1.558-.12953,3.12739-1.41446,2.43351-3.052l-.85512.85512a6.57607,6.57607,0,0,0,7.532-1.06787l-1.04462-.60809c-.74011,1.86191,1.4982,2.94217,2.98541,3.18609,2.75637.45207,5.16786-1.48983,7.91558-1.30577.803.0538.79973-1.19642,0-1.25-1.93469-.1296-3.62508.65423-5.45269,1.14394-.87593.23471-4.97974.41161-4.243-1.442.237-.59613-.637-1.03423-1.04462-.60809a5.29988,5.29988,0,0,1-6.01723.87242.6309.6309,0,0,0-.85512.85512c.53208,1.25569-2.13961,1.14735-2.5395.97495a3.05722,3.05722,0,0,1-1.67954-2.07537.63346.63346,0,0,0-1.04462-.27579l-3.26961,2.74c-.61727.51729.271,1.39753.88389.88389Z"/></g></g></svg>